<?xml version="1.0" encoding="UTF-8"?>
<svg fill="none" viewBox="0 0 52 47" xmlns="http://www.w3.org/2000/svg">
<path d="m39.508 25.342v9.7991h-27.106v-9.7991c-4.4047 0-7.793-3.3789-7.793-7.7716s3.3882-7.7717 7.793-7.7717c3.0494 0 5.76 1.6895 7.1153 4.3927l3.3882-1.6895c-1.0164-1.6895-2.0329-3.379-3.727-4.3927 1.3553-2.3653 3.727-4.0548 6.7764-4.0548 4.4047 0 7.793 3.379 7.793 7.7717 0 1.3516-0.3388 2.7032-1.0165 4.0548l3.3882 2.0274c1.0165-1.6895 1.6942-3.7169 1.6942-6.0822v-1.6895c0.6776-0.33792 1.3553-0.33792 2.0329-0.33792 4.4047 0 7.7929 3.379 7.7929 7.7717s-3.727 7.7716-8.1317 7.7716zm0 17.571h-27.106v-3.7169h27.106v3.7169zm0-36.831c-1.0165 0-2.033 0.3379-3.3883 0.3379-2.0329-3.7169-5.76-6.4201-10.165-6.4201s-8.4706 2.3653-10.165 6.4201c-1.0164-0.3379-2.0329-0.3379-3.3882-0.3379-6.4377 0-11.52 5.0685-11.52 11.489 0 5.0685 3.3882 9.4611 7.7929 10.813v17.909h34.899v-17.571c4.4047-1.6895 7.7929-5.7442 7.7929-10.813 0-6.4201-5.4212-11.827-11.859-11.827zm-17.28 25.005h-3.7271v-7.4337h3.7271v7.4337zm11.52 0h-3.7271v-7.4337h3.7271v7.4337z" clip-rule="evenodd" fill="#D04F4F" fill-rule="evenodd"/>
</svg>
